<?xml version="1.0" encoding="UTF-8"?>
<svg xmlns="http://www.w3.org/2000/svg" xmlns:xlink="http://www.w3.org/1999/xlink" width="25px" height="25px" viewBox="0 0 25 37" version="1.1">
<defs>
<clipPath id="clip1">
  <path d="M 0 0.0625 L 25 0.0625 L 25 36.941406 L 0 36.941406 Z M 0 0.0625 "/>
</clipPath>
<clipPath id="clip2">
  <path d="M 16.753906 0.320312 C 16.523438 0.15625 16.242188 0.0625 15.9375 0.0625 C 15.183594 0.0625 14.566406 0.660156 14.566406 1.398438 L 14.566406 12.625 L 12.503906 12.625 C 5.621094 12.625 0.015625 18.082031 0.015625 24.78125 C 0.015625 31.484375 5.621094 36.941406 12.503906 36.941406 C 19.382812 36.941406 24.988281 31.484375 24.988281 24.78125 L 24.988281 20.097656 L 22.238281 20.097656 L 22.238281 24.78125 C 22.238281 30.007812 17.867188 34.261719 12.503906 34.261719 C 7.136719 34.261719 2.765625 30.007812 2.765625 24.78125 C 2.765625 19.558594 7.136719 15.304688 12.503906 15.304688 L 14.566406 15.304688 L 14.566406 20.101562 L 12.503906 20.101562 C 9.855469 20.101562 7.691406 22.207031 7.691406 24.785156 C 7.691406 27.359375 9.855469 29.46875 12.503906 29.46875 C 15.148438 29.46875 17.3125 27.363281 17.3125 24.785156 L 17.3125 24.597656 C 17.3125 19.109375 17.3125 13.617188 17.3125 8.128906 C 21.378906 7.652344 22.992188 11.40625 22.164062 19.390625 C 24.875 15.539062 25.78125 10.214844 21.382812 5.949219 C 20.6875 5.269531 19.953125 4.613281 19.285156 3.941406 C 18.28125 2.933594 17.027344 0.519531 16.753906 0.320312 Z M 16.753906 0.320312 "/>
</clipPath>
</defs>
<g id="surface1">
<g clip-path="url(#clip1)" clip-rule="nonzero">
<g clip-path="url(#clip2)" clip-rule="evenodd">
<path style=" stroke:none;fill-rule:nonzero;fill:rgb(0%,0%,0%);fill-opacity:1;" d="M 0.015625 0.0625 L 0.015625 36.941406 L 25 36.941406 L 25 0.0625 Z M 0.015625 0.0625 "/>
</g>
</g>
</g>
</svg>
