<?xml version="1.0" standalone="no"?>
<!DOCTYPE svg PUBLIC "-//W3C//DTD SVG 20010904//EN"
 "http://www.w3.org/TR/2001/REC-SVG-20010904/DTD/svg10.dtd">
<svg version="1.0" xmlns="http://www.w3.org/2000/svg"
 width="1280.000000pt" height="943.000000pt" viewBox="0 0 1280.000000 943.000000"
 preserveAspectRatio="xMidYMid meet">
<metadata>
Created by potrace 1.15, written by Peter Selinger 2001-2017
</metadata>
<g transform="translate(0.000000,943.000000) scale(0.100000,-0.100000)"
fill="#000000" stroke="none">
<path d="M1745 9031 c-157 -91 -299 -309 -399 -611 -164 -495 -184 -1004 -65
-1667 l31 -173 -29 -33 c-15 -19 -95 -110 -177 -203 -610 -692 -847 -1159
-873 -1714 -14 -323 56 -666 197 -955 223 -459 598 -759 1038 -831 113 -19
346 -14 449 9 56 13 63 13 68 -2 9 -30 134 -682 146 -763 17 -116 7 -305 -21
-393 -35 -111 -77 -184 -145 -252 -76 -76 -190 -134 -308 -158 -68 -13 -85
-14 -147 -1 -77 16 -146 45 -133 56 4 4 26 12 49 18 58 17 154 82 197 134 80
97 113 210 104 358 -6 103 -31 189 -82 276 -40 69 -133 157 -202 190 -53 27
-67 29 -168 29 -104 0 -113 -2 -170 -32 -178 -93 -290 -285 -302 -518 -19
-344 196 -651 534 -764 263 -88 598 -16 799 171 88 83 123 130 184 252 l45 89
129 57 c125 55 130 58 143 96 21 61 78 111 188 164 92 45 226 90 317 106 43 7
49 -2 68 -99 8 -40 18 -60 32 -68 21 -11 21 -10 13 47 -5 33 -9 75 -9 94 l-1
35 110 3 c135 4 261 -11 416 -49 205 -50 660 -205 1264 -429 210 -78 464 -171
823 -301 90 -32 270 -92 400 -133 1217 -383 2180 -546 2980 -505 293 15 706
67 986 124 120 24 166 30 183 22 16 -7 57 -3 156 18 74 14 148 26 163 25 66
-5 72 -1 108 59 32 52 44 62 113 95 159 77 323 198 384 285 26 37 28 42 9 26
l-24 -20 22 32 c14 20 28 30 40 27 22 -6 331 99 494 168 153 65 172 82 166
149 -3 27 -8 52 -12 56 -3 4 -43 -12 -89 -34 -84 -41 -294 -123 -425 -164 -61
-20 -76 -29 -95 -59 -46 -75 -162 -181 -260 -238 -21 -12 -40 -22 -42 -22 -2
0 16 35 39 77 39 70 51 84 127 136 101 70 185 140 200 169 8 16 8 19 -1 13
-11 -7 29 72 53 102 5 7 19 10 31 7 27 -6 272 83 402 147 80 40 89 47 92 74 5
61 -9 64 -100 18 -75 -37 -203 -88 -344 -138 -44 -15 -55 -24 -73 -62 -30 -62
-111 -145 -199 -204 -41 -27 -76 -48 -78 -46 -2 2 11 45 30 96 36 97 43 105
145 172 55 36 145 120 164 155 6 10 11 29 12 43 1 14 3 31 3 38 1 6 14 11 30
11 27 -1 226 74 317 119 85 43 98 63 74 116 l-11 25 -82 -43 c-44 -24 -131
-62 -191 -85 -110 -42 -111 -43 -130 -88 -23 -58 -122 -157 -193 -195 -29 -16
-55 -27 -57 -25 -2 2 2 28 8 58 8 34 16 50 20 42 5 -6 21 -12 37 -12 23 0 35
8 55 38 26 39 65 139 65 166 0 9 21 39 46 67 25 29 54 70 64 93 17 40 22 43
126 84 152 59 214 96 214 126 0 13 -8 34 -18 46 l-19 23 -46 -27 c-25 -15 -94
-47 -154 -71 -101 -40 -108 -45 -114 -75 -7 -32 -66 -103 -79 -95 -4 3 -10 25
-13 51 -2 25 -15 59 -27 76 -12 16 -20 32 -17 34 2 2 26 20 53 39 29 20 59 54
74 81 23 42 32 48 118 84 51 21 111 50 133 65 37 24 40 29 33 58 -7 35 -39
103 -52 111 -4 2 -46 -14 -92 -38 -47 -23 -104 -49 -127 -58 -30 -11 -43 -22
-43 -35 0 -71 -233 -166 -471 -193 -176 -20 -1097 -10 -1399 15 -266 23 -862
138 -1093 212 -45 14 -49 18 -44 42 3 14 23 109 45 211 47 212 102 534 102
596 0 34 -5 47 -27 64 -26 20 -28 20 -40 4 -7 -10 -13 -30 -13 -46 0 -27 -51
-342 -70 -428 -5 -25 -21 -99 -35 -165 -14 -66 -30 -133 -35 -150 -4 -16 -11
-42 -14 -58 -8 -33 -17 -34 -120 -2 -44 13 -202 61 -351 106 -148 44 -376 114
-505 155 -129 42 -300 96 -380 120 -80 25 -162 52 -182 60 -21 7 -82 27 -135
43 -182 55 -488 153 -505 162 -15 8 -15 14 -2 61 20 75 18 93 -11 112 -25 16
-29 16 -90 -9 -87 -34 -209 -59 -258 -51 -21 4 -110 26 -196 50 -322 91 -606
154 -876 196 -71 11 -144 22 -161 25 -30 5 -32 8 -36 56 -8 83 -64 139 -145
146 l-49 5 -59 -84 -60 -85 -180 -7 c-227 -8 -353 -25 -531 -70 -184 -46 -293
-85 -434 -154 -232 -114 -422 -263 -510 -400 -44 -69 -47 -71 -130 -105 -47
-19 -150 -65 -229 -101 -79 -36 -147 -66 -152 -66 -5 0 -9 7 -9 14 0 8 42 43
93 77 122 84 289 250 362 362 149 230 213 504 186 807 -35 397 -215 736 -486
915 -150 99 -271 135 -452 135 -63 0 -114 4 -118 10 -8 13 -115 596 -115 628
0 15 27 57 74 116 119 147 221 309 316 501 320 646 354 1291 108 2018 -93 278
-204 479 -288 522 -47 24 -108 19 -165 -14z m248 -811 c14 -11 38 -46 54 -78
26 -53 28 -65 27 -172 -4 -326 -166 -709 -445 -1050 -45 -55 -85 -100 -89
-100 -13 0 -18 23 -35 153 -44 344 19 742 161 1018 99 192 245 293 327 229z
m-504 -2592 c6 -29 24 -132 41 -228 17 -96 33 -182 36 -191 3 -12 -20 -33 -82
-74 -207 -138 -364 -355 -440 -610 -25 -82 -28 -105 -28 -260 -1 -184 7 -236
56 -372 78 -217 248 -410 442 -505 92 -44 134 -48 171 -15 37 32 43 85 16 139
-17 34 -39 54 -107 98 -93 59 -147 115 -186 195 -68 135 -60 285 23 455 33 66
60 102 124 166 72 73 118 104 131 91 8 -8 245 -1341 240 -1353 -9 -23 -189
-47 -309 -41 -452 22 -823 323 -933 755 -111 435 38 932 420 1402 88 108 356
400 367 400 4 0 12 -24 18 -52z m575 -1082 c191 -69 333 -240 392 -473 55
-218 12 -440 -126 -643 -42 -61 -152 -170 -157 -155 -5 17 -233 1269 -233
1282 0 20 52 16 124 -11z m2215 -891 c2 -2 -23 -52 -56 -112 l-58 -108 -185
-1 c-247 -1 -370 -16 -579 -70 -157 -41 -327 -113 -468 -201 -66 -41 -74 -43
-89 -29 -34 35 -78 5 -99 -68 -9 -30 -26 -65 -38 -78 -54 -58 -91 -113 -113
-166 l-22 -56 -139 -62 c-76 -34 -141 -59 -145 -55 -4 3 -10 38 -14 77 l-7 70
169 77 c93 42 180 82 193 89 27 15 104 135 89 140 -5 2 0 16 12 31 12 16 24
26 27 23 3 -2 40 25 82 62 207 179 454 301 760 377 167 42 251 55 406 65 107
7 264 4 274 -5z m268 -31 c3 -9 -2 -32 -12 -51 -20 -37 -22 -36 -51 32 l-14
35 35 0 c24 0 38 -5 42 -16z m295 -34 c187 -34 538 -116 551 -129 12 -12 -84
-281 -99 -281 -6 0 -71 18 -145 39 -146 43 -267 74 -484 121 -77 17 -143 34
-147 38 -12 12 17 76 62 137 53 73 81 105 90 105 4 0 82 -13 172 -30z m-516
-128 c12 -9 27 -28 34 -41 l12 -23 -54 7 c-90 11 -90 12 -73 46 18 34 48 38
81 11z m-240 -154 c7 -8 -1 -46 -15 -67 -7 -11 -15 -10 -46 9 -87 54 -236 7
-350 -109 -32 -33 -65 -71 -73 -84 -13 -21 -26 -26 -86 -32 -109 -10 -148 -16
-186 -26 -58 -15 -60 -14 -60 44 0 29 -7 77 -16 106 -8 30 -12 57 -7 61 25 23
248 77 393 96 106 13 433 15 446 2z m207 -24 c70 -9 79 -22 61 -87 -8 -28 -35
-94 -59 -145 l-45 -94 -32 7 c-18 4 -63 13 -100 22 l-67 14 26 72 c39 109 82
201 101 215 9 7 28 10 42 8 14 -3 47 -8 73 -12z m1777 -18 c115 -40 109 -22
64 -198 -22 -84 -44 -152 -50 -151 -34 9 -685 230 -690 236 -8 8 26 116 40
125 15 10 262 20 426 17 117 -2 145 -6 210 -29z m-1408 -57 c127 -29 341 -86
493 -131 100 -29 103 -34 82 -110 -9 -35 -28 -106 -42 -158 -14 -52 -27 -100
-30 -107 -2 -8 -53 5 -157 39 -207 69 -385 122 -553 164 -77 20 -143 39 -147
43 -4 3 20 49 53 101 33 52 71 116 85 143 30 58 34 58 216 16z m2266 -228
c683 -225 900 -294 1222 -390 266 -80 290 -89 290 -109 0 -9 -8 -37 -17 -62
-11 -31 -16 -77 -16 -152 0 -60 -2 -108 -6 -108 -76 0 -1376 418 -2006 645
-71 26 -145 51 -163 56 -18 6 -36 17 -39 25 -6 17 54 272 70 292 5 6 14 12 19
12 5 0 296 -94 646 -209z m-3893 122 c-32 -76 -46 -121 -53 -165 l-7 -51 -77
-43 c-84 -46 -88 -44 -62 27 9 24 22 71 29 103 8 34 21 64 31 70 50 32 130 76
138 76 4 0 5 -8 1 -17z m2620 -188 c333 -115 378 -132 391 -149 8 -11 4 -48
-16 -143 -28 -141 -36 -151 -89 -114 -69 50 -175 64 -294 40 -53 -11 -62 -10
-149 21 -171 59 -248 91 -248 104 0 25 81 310 92 323 15 19 33 14 313 -82z
m-2845 -14 c0 -38 -4 -81 -9 -95 -9 -21 -74 -76 -91 -76 -3 0 -3 30 1 68 5 37
8 72 8 78 1 20 61 94 76 94 12 0 15 -15 15 -69z m734 -48 c8 -63 35 -106 81
-127 76 -36 174 -6 286 89 46 39 72 55 93 55 114 0 1067 -275 1112 -322 10
-10 10 -29 -2 -98 -9 -47 -18 -88 -22 -92 -4 -4 -27 6 -52 22 -57 38 -128 54
-200 47 -62 -7 -93 -18 -153 -55 l-38 -23 -142 46 c-291 96 -540 163 -727 196
-98 18 -163 22 -300 22 -96 0 -196 -5 -222 -10 l-48 -10 1 51 c0 73 24 195 40
211 17 17 152 42 230 44 l56 1 7 -47z m-853 -65 c-9 -80 -12 -85 -59 -136 -56
-60 -97 -130 -106 -182 -6 -33 -12 -38 -92 -74 -49 -23 -88 -35 -93 -30 -15
17 -34 164 -22 178 6 7 59 34 118 61 114 51 147 77 139 108 -9 34 53 145 74
132 5 -3 17 6 27 21 23 36 26 19 14 -78z m323 -52 c32 -43 73 -53 116 -31 18
9 34 14 36 12 3 -2 1 -33 -3 -67 l-8 -63 -95 -32 c-111 -37 -203 -77 -280
-121 -66 -38 -67 -37 -76 70 -8 91 2 111 79 160 56 36 187 106 198 106 4 0 18
-15 33 -34z m3439 -105 c233 -83 267 -96 267 -109 0 -4 -16 -18 -35 -31 -47
-32 -93 -104 -101 -159 -4 -26 -3 -73 3 -104 5 -32 7 -58 5 -58 -5 0 -204 67
-232 78 -14 6 -81 32 -150 58 -69 26 -127 49 -129 50 -5 4 37 238 54 304 8 29
19 57 26 61 15 9 14 9 292 -90z m-3773 -95 c0 -25 -5 -35 -19 -39 -10 -2 -27
-16 -36 -30 -19 -30 -45 -120 -45 -159 0 -14 -11 -48 -25 -75 -13 -26 -27 -64
-30 -83 -3 -19 -7 -35 -8 -35 -1 -1 -30 -13 -64 -28 l-62 -26 -5 27 c-18 92
-26 154 -21 162 3 6 40 25 81 44 78 37 96 59 87 107 -4 20 8 38 61 95 36 38
66 73 66 77 0 5 5 5 10 2 6 -3 10 -21 10 -39z m2653 -58 c49 -17 91 -37 93
-43 3 -6 -16 -41 -40 -78 -48 -72 -62 -110 -72 -195 -6 -43 -10 -52 -23 -47
-9 4 -40 16 -69 27 -29 11 -56 26 -58 33 -8 20 42 303 56 320 16 19 10 20 113
-17z m-1578 -17 c158 -27 525 -128 740 -204 45 -16 49 -32 21 -102 -17 -45
-21 -161 -6 -199 12 -33 8 -33 -99 3 -592 202 -756 240 -1069 245 l-137 2 -3
121 c-2 93 1 123 11 132 42 34 342 35 542 2z m-605 -73 c0 -35 3 -93 6 -129
l7 -66 -79 -18 c-162 -36 -348 -122 -432 -199 -51 -47 -72 -83 -72 -125 0 -22
-6 -31 -22 -37 -13 -3 -49 -19 -82 -35 -77 -38 -90 -38 -82 2 3 17 6 63 6 101
l0 69 67 30 c75 34 82 41 83 84 0 17 7 39 15 49 14 18 15 18 25 -10 19 -55 36
-79 55 -79 27 0 44 40 62 143 8 48 19 94 24 103 13 25 173 104 290 144 57 19
110 35 117 35 8 0 12 -19 12 -62z m6005 -58 c83 -16 222 -39 310 -50 191 -25
198 -27 190 -48 -7 -18 -13 -48 -40 -199 l-17 -92 -68 4 c-138 9 -500 62 -541
79 -15 6 -15 13 -2 69 14 59 13 111 -3 225 -5 32 -3 42 7 42 8 0 82 -13 164
-30z m2317 -17 c-20 -41 -34 -87 -55 -172 -12 -51 -15 -54 -62 -72 -85 -33
-244 -69 -375 -83 -148 -17 -377 -34 -440 -33 -25 1 -63 -2 -85 -5 -72 -12
-382 -21 -388 -11 -3 5 15 27 41 49 52 45 89 110 106 188 l11 51 275 7 c528
13 728 33 885 87 109 38 109 38 87 -6z m-3845 -78 c108 -34 129 -51 144 -123
20 -96 -10 -284 -47 -299 -16 -6 -247 55 -270 71 -10 8 -23 62 -40 165 -13 85
-34 175 -45 202 -12 26 -18 52 -15 57 4 6 44 -2 98 -19 51 -16 130 -41 175
-54z m-1237 -150 c162 -58 350 -130 416 -161 88 -40 154 -62 240 -80 135 -28
246 -59 287 -81 36 -18 43 -38 67 -201 29 -193 29 -178 0 -173 -130 18 -1490
472 -1533 511 -5 4 20 37 56 73 46 46 75 87 101 141 25 52 42 76 54 76 10 0
150 -47 312 -105z m1690 15 c87 -27 210 -63 274 -81 105 -28 121 -36 173 -82
32 -27 76 -58 98 -68 53 -25 137 -24 209 2 l59 20 156 -26 c86 -14 164 -28
173 -31 15 -4 9 -21 -38 -117 -30 -61 -62 -136 -70 -165 l-16 -54 -62 7 c-227
25 -604 105 -1061 225 -65 17 -63 14 -63 113 -1 70 -7 113 -28 182 -43 145
-43 139 0 131 21 -4 109 -29 196 -56z m-2819 -120 c46 -17 109 -47 140 -66 77
-46 116 -62 207 -80 42 -9 166 -50 274 -90 422 -158 955 -334 1343 -444 190
-54 221 -65 229 -86 3 -7 12 -66 22 -131 9 -65 20 -125 25 -134 8 -15 3 -15
-56 -3 -243 51 -810 215 -1240 359 -280 94 -1074 384 -1230 451 l-40 17 30 21
c52 36 114 104 136 148 41 81 41 81 160 38z m6123 -62 c-14 -91 -43 -201 -56
-209 -16 -11 -108 -46 -141 -54 -23 -6 -24 -4 -29 60 -4 48 -13 76 -32 105
-33 50 -33 58 2 66 58 13 208 56 222 65 32 19 40 11 34 -33z m-464 -74 c0 -3
-11 -20 -24 -37 -32 -41 -53 -97 -69 -177 l-14 -65 -39 -3 -40 -3 10 72 c7 52
6 89 -3 132 -7 32 -10 61 -7 64 12 12 186 28 186 17z m-1457 -33 c43 -5 83
-13 88 -18 9 -9 -45 -216 -77 -291 l-14 -33 -102 6 c-57 4 -109 12 -117 18
-29 24 10 242 54 305 18 25 38 26 168 13z m853 -33 c-15 -52 -18 -167 -6 -217
7 -29 10 -54 8 -56 -15 -15 -768 -46 -768 -32 0 12 83 282 91 299 10 19 -9 18
503 26 l179 3 -7 -23z m-2747 -82 c19 -7 36 -17 39 -24 6 -18 -97 -66 -113
-52 -14 12 -28 67 -19 81 7 12 52 10 93 -5z m3726 -133 c-3 -15 -20 -63 -37
-106 -27 -72 -33 -79 -76 -101 -26 -13 -64 -28 -84 -34 l-37 -10 20 51 c11 29
27 72 36 97 9 25 22 52 29 60 11 11 132 67 153 69 2 1 0 -11 -4 -26z m-3133
-28 c241 -60 482 -108 703 -140 99 -14 191 -29 204 -33 26 -8 29 -11 64 -92
13 -30 38 -70 57 -88 43 -43 121 -82 164 -82 42 0 51 11 97 125 17 44 40 87
50 96 14 13 57 17 236 22 120 4 301 14 403 23 102 9 234 16 293 15 75 -1 118
4 144 14 49 21 63 19 63 -9 0 -21 -47 -196 -54 -203 -7 -8 -364 -63 -466 -73
-63 -6 -158 -15 -210 -20 -529 -51 -1055 -27 -1560 72 -85 17 -166 32 -180 35
-14 2 -67 14 -118 25 l-93 21 8 56 c9 70 7 155 -7 215 -10 47 -7 66 10 66 6 0
92 -20 192 -45z m-315 -33 c-7 -63 -38 -154 -65 -189 l-17 -23 -75 20 c-109
28 -120 32 -120 39 0 3 29 21 63 39 57 29 187 144 187 164 0 4 7 8 16 8 14 0
16 -8 11 -58z m2991 -74 c59 -74 99 -85 172 -48 44 22 46 19 28 -42 -15 -49
-35 -60 -184 -98 -157 -39 -209 -47 -202 -29 3 8 15 55 28 104 26 103 39 122
84 128 17 2 37 5 44 5 7 1 20 -8 30 -20z m-1438 -103 c0 -8 -6 -15 -14 -15 -7
0 -19 7 -26 15 -11 13 -8 15 14 15 16 0 26 -5 26 -15z m1727 -151 c-41 -82
-44 -86 -104 -116 -34 -16 -66 -29 -71 -27 -17 7 47 133 81 159 29 23 112 67
129 69 5 1 -11 -38 -35 -85z m-3518 17 c12 -8 10 -12 -12 -22 -20 -9 -31 -9
-38 -2 -25 25 18 44 50 24z m3326 -109 c-34 -73 -39 -79 -83 -96 -78 -29 -224
-73 -271 -81 -42 -7 -43 -6 -36 16 5 13 23 56 40 96 l33 71 59 12 c32 6 110
25 173 43 63 18 117 29 118 24 2 -4 -13 -42 -33 -85z m-2927 19 c216 -48 569
-106 807 -131 193 -21 670 -24 895 -6 327 27 614 63 803 102 21 4 27 2 27 -11
0 -22 -61 -168 -73 -176 -9 -7 -138 -32 -317 -64 -89 -15 -335 -47 -505 -64
-387 -41 -769 -39 -1155 4 -249 28 -689 104 -855 148 l-50 13 87 41 c59 28
107 60 152 102 36 34 72 61 81 61 8 0 55 -9 103 -19z"/>
</g>
</svg>
