<svg xmlns="http://www.w3.org/2000/svg" xmlns:xlink="http://www.w3.org/1999/xlink" zoomAndPan="magnify" preserveAspectRatio="xMidYMid meet" version="1.0" viewBox="136.48 78.5 102 154.5"><defs><clipPath id="fa857af999"><path d="M 136.484375 78.503906 L 238.484375 78.503906 L 238.484375 233.003906 L 136.484375 233.003906 Z M 136.484375 78.503906 " clip-rule="nonzero"></path></clipPath><clipPath id="ef430413fa"><path d="M 204.828125 79.597656 C 203.898438 78.90625 202.746094 78.503906 201.511719 78.503906 C 198.425781 78.503906 195.90625 81.023438 195.90625 84.105469 L 195.90625 131.144531 L 187.488281 131.144531 C 159.410156 131.144531 136.546875 154 136.546875 182.070312 C 136.546875 210.140625 159.410156 233.003906 187.488281 233.003906 C 215.566406 233.003906 238.4375 210.148438 238.4375 182.070312 L 238.4375 162.445312 L 227.21875 162.445312 L 227.21875 182.070312 C 227.21875 203.953125 209.378906 221.785156 187.488281 221.785156 C 165.605469 221.785156 147.765625 203.953125 147.765625 182.070312 C 147.765625 160.191406 165.605469 142.359375 187.488281 142.359375 L 195.90625 142.359375 L 195.90625 162.453125 L 187.488281 162.453125 C 176.691406 162.453125 167.859375 171.285156 167.859375 182.078125 C 167.859375 192.867188 176.691406 201.707031 187.488281 201.707031 C 198.285156 201.707031 207.117188 192.875 207.117188 182.078125 L 207.117188 181.296875 C 207.117188 158.296875 207.117188 135.300781 207.117188 112.300781 C 223.703125 110.3125 230.292969 126.039062 226.902344 159.488281 C 237.972656 143.351562 241.671875 121.046875 223.722656 103.167969 C 220.878906 100.332031 217.882812 97.570312 215.15625 94.753906 C 211.070312 90.546875 205.953125 80.429688 204.828125 79.597656 Z M 204.828125 79.597656 " clip-rule="evenodd"></path></clipPath></defs><g clip-path="url(#fa857af999)"><g clip-path="url(#ef430413fa)"><path fill="#000000" d="M 136.546875 78.503906 L 136.546875 233.003906 L 238.484375 233.003906 L 238.484375 78.503906 Z M 136.546875 78.503906 " fill-opacity="1" fill-rule="nonzero"></path></g></g></svg>